ffmpeg version 2.8.11-0ubuntu0.16.04.1 Copyright (c) 2000-2017 the FFmpeg developers
  built with gcc 5.4.0 (Ubuntu 5.4.0-6ubuntu1~16.04.4) 20160609
  configuration: --prefix=/usr --extra-version=0ubuntu0.16.04.1 --build-suffix=-ffmpeg --toolchain=hardened --libdir=/usr/lib/x86_64-linux-gnu --incdir=/usr/include/x86_64-linux-gnu --cc=cc --cxx=g++ --enable-gpl --enable-shared --disable-stripping --disable-decoder=libopenjpeg --disable-decoder=libschroedinger --enable-avresample --enable-avisynth --enable-gnutls --enable-ladspa --enable-libass --enable-libbluray --enable-libbs2b --enable-libcaca --enable-libcdio --enable-libflite --enable-libfontconfig --enable-libfreetype --enable-libfribidi --enable-libgme --enable-libgsm --enable-libmodplug --enable-libmp3lame --enable-libopenjpeg --enable-libopus --enable-libpulse --enable-librtmp --enable-libschroedinger --enable-libshine --enable-libsnappy --enable-libsoxr --enable-libspeex --enable-libssh --enable-libtheora --enable-libtwolame --enable-libvorbis --enable-libvpx --enable-libwavpack --enable-libwebp --enable-libx265 --enable-libxvid --enable-libzvbi --enable-openal --enable-opengl --enable-x11grab --enable-libdc1394 --enable-libiec61883 --enable-libzmq --enable-frei0r --enable-libx264 --enable-libopencv
  libavutil      54. 31.100 / 54. 31.100
  libavcodec     56. 60.100 / 56. 60.100
  libavformat    56. 40.101 / 56. 40.101
  libavdevice    56.  4.100 / 56.  4.100
  libavfilter     5. 40.101 /  5. 40.101
  libavresample   2.  1.  0 /  2.  1.  0
  libswscale      3.  1.101 /  3.  1.101
  libswresample   1.  2.101 /  1.  2.101
  libpostproc    53.  3.100 / 53.  3.100
Input #0, mov,mp4,m4a,3gp,3g2,mj2, from '/var/www/html/process/Sample_Videos.mp4':
  Metadata:
    major_brand     : isom
    minor_version   : 0
    compatible_brands: mp41avc1
    creation_time   : 2018-03-28 07:31:10
    encoder         : vlc 3.0.1 stream output
    encoder-eng     : vlc 3.0.1 stream output
  Duration: 00:00:09.94, start: 0.000000, bitrate: 1605 kb/s
    Stream #0:0(eng): Audio: mp3 (mp4a / 0x6134706D), 44100 Hz, stereo, s16p, 127 kb/s (default)
    Metadata:
      creation_time   : 2018-03-28 07:31:10
      handler_name    : SoundHandler
    Stream #0:1(eng): Video: hevc (Main) (hev1 / 0x31766568), yuv420p(tv), 1280x720, 1483 kb/s, 29.97 fps, 29.97 tbr, 1000k tbn, 29.97 tbc (default)
    Metadata:
      creation_time   : 2018-03-28 07:31:10
      handler_name    : VideoHandler
[swscaler @ 0x2267700] deprecated pixel format used, make sure you did set range correctly
Output #0, image2, to '/var/www/html/done/thumb/Sample_Videos_thumb.jpg':
  Metadata:
    major_brand     : isom
    minor_version   : 0
    compatible_brands: mp41avc1
    encoder         : Lavf56.40.101
    Stream #0:0(eng): Video: mjpeg, yuvj420p(pc), 200x200, q=2-31, 200 kb/s, 29.97 fps, 29.97 tbn, 29.97 tbc (default)
    Metadata:
      creation_time   : 2018-03-28 07:31:10
      handler_name    : VideoHandler
      encoder         : Lavc56.60.100 mjpeg
Stream mapping:
  Stream #0:1 -> #0:0 (hevc (native) -> mjpeg (native))
Press [q] to stop, [?] for help
frame=    1 fps=0.0 q=4.0 Lsize=N/A time=00:00:00.03 bitrate=N/A    
video:7kB audio:0kB subtitle:0kB other streams:0kB global headers:0kB muxing overhead: unknown
